HIERARCHY
ROOT Hips
{
	OFFSET 0.000000 103.266502 0.000000
	CHANNELS 6 Xposition Yposition Zposition Xrotation Yrotation Zrotation 
	JOINT Spine
	{
		OFFSET -0.002400 12.777504 0.315300
		CHANNELS 3 Xrotation Yrotation Zrotation
		JOINT Spine1
		{
			OFFSET -0.002067 5.816869 0.032633
			CHANNELS 3 Xrotation Yrotation Zrotation
			JOINT Spine1_split
			{
				OFFSET -0.002067 5.816869 0.032633
				CHANNELS 3 Xrotation Yrotation Zrotation
				JOINT Spine2
				{
					OFFSET -0.002067 5.816869 0.032633
					CHANNELS 3 Xrotation Yrotation Zrotation
					JOINT Neck
					{
						OFFSET -0.003700 21.199493 -0.826900
						CHANNELS 3 Xrotation Yrotation Zrotation
						JOINT Head
						{
							OFFSET 0.000000 20.442200 4.834800
							CHANNELS 3 Xrotation Yrotation Zrotation
							JOINT HeadTop_End
							{
								OFFSET 0.000000 34.668396 4.968400
								CHANNELS 3 Xrotation Yrotation Zrotation
								End Site
								{
									OFFSET 0.000000 0.000000 0.000000
								}
							}
						}
					}
					JOINT LeftShoulder
					{
						OFFSET 3.288150 8.794197 -1.372250
						CHANNELS 3 Xrotation Yrotation Zrotation
						JOINT LeftShoulder_split
						{
							OFFSET 3.288150 8.794197 -1.372250
							CHANNELS 3 Xrotation Yrotation Zrotation
							JOINT LeftArm
							{
								OFFSET 11.953299 -2.279007 -0.146200
								CHANNELS 3 Xrotation Yrotation Zrotation
								JOINT LeftForeArm
								{
									OFFSET 18.448900 0.000000 0.000000
									CHANNELS 3 Xrotation Yrotation Zrotation
									JOINT LeftHand
									{
										OFFSET 29.527798 0.000000 0.000000
										CHANNELS 3 Xrotation Yrotation Zrotation
										JOINT LeftHandThumb1
										{
											OFFSET 10.739754 -2.369614 9.225399
											CHANNELS 3 Xrotation Yrotation Zrotation
											JOINT LeftHandThumb2
											{
												OFFSET 4.926170 -2.844131 2.844125
												CHANNELS 3 Xrotation Yrotation Zrotation
												JOINT LeftHandThumb3
												{
													OFFSET 4.614891 -2.664413 2.664409
													CHANNELS 3 Xrotation Yrotation Zrotation
													JOINT LeftHandThumb4
													{
														OFFSET 4.432465 -2.559082 2.559083
														CHANNELS 3 Xrotation Yrotation Zrotation
														End Site
														{
															OFFSET 0.000000 0.000000 0.000000
														}
													}
												}
											}
										}
										JOINT LeftHandIndex1
										{
											OFFSET 26.467674 0.187653 6.405298
											CHANNELS 3 Xrotation Yrotation Zrotation
											JOINT LeftHandIndex2
											{
												OFFSET 8.792900 0.000000 0.000000
												CHANNELS 3 Xrotation Yrotation Zrotation
												JOINT LeftHandIndex3
												{
													OFFSET 10.075203 0.000000 0.000000
													CHANNELS 3 Xrotation Yrotation Zrotation
													End Site
													{
														OFFSET 0.000000 0.000000 0.000000
													}
												}
											}
										}
										JOINT LeftHandMiddle1
										{
											OFFSET 25.764404 0.000000 0.000000
											CHANNELS 3 Xrotation Yrotation Zrotation
											JOINT LeftHandMiddle2
											{
												OFFSET 9.393974 0.000000 0.000000
												CHANNELS 3 Xrotation Yrotation Zrotation
												JOINT LeftHandMiddle3
												{
													OFFSET 10.771950 0.000000 0.000000
													CHANNELS 3 Xrotation Yrotation Zrotation
													End Site
													{
														OFFSET 0.000000 0.000000 0.000000
													}
												}
											}
										}
										JOINT LeftHandRing1
										{
											OFFSET 24.660927 0.144547 -6.225808
											CHANNELS 3 Xrotation Yrotation Zrotation
											JOINT LeftHandRing2
											{
												OFFSET 9.393799 0.000000 0.000000
												CHANNELS 3 Xrotation Yrotation Zrotation
												JOINT LeftHandRing3
												{
													OFFSET 9.928497 0.000000 0.000000
													CHANNELS 3 Xrotation Yrotation Zrotation
													End Site
													{
														OFFSET 0.000000 0.000000 0.000000
													}
												}
											}
										}
										JOINT LeftHandPinky1
										{
											OFFSET 23.655350 0.125290 -12.815412
											CHANNELS 3 Xrotation Yrotation Zrotation
											JOINT LeftHandPinky2
											{
												OFFSET 8.425102 0.000000 0.000000
												CHANNELS 3 Xrotation Yrotation Zrotation
												JOINT LeftHandPinky3
												{
													OFFSET 8.147003 0.000000 0.000000
													CHANNELS 3 Xrotation Yrotation Zrotation
													End Site
													{
														OFFSET 0.000000 0.000000 0.000000
													}
												}
											}
										}
									}
								}
							}
						}
					}
					JOINT RightShoulder
					{
						OFFSET -3.249400 8.794197 -1.372250
						CHANNELS 3 Xrotation Yrotation Zrotation
						JOINT RightShoulder_split
						{
							OFFSET -3.249400 8.794197 -1.372250
							CHANNELS 3 Xrotation Yrotation Zrotation
							JOINT RightArm
							{
								OFFSET -11.953299 -2.279007 -0.146200
								CHANNELS 3 Xrotation Yrotation Zrotation
								JOINT RightForeArm
								{
									OFFSET -18.448900 0.000000 0.000000
									CHANNELS 3 Xrotation Yrotation Zrotation
									JOINT RightHand
									{
										OFFSET -29.527802 0.000000 0.000000
										CHANNELS 3 Xrotation Yrotation Zrotation
										JOINT RightHandThumb1
										{
											OFFSET -10.739754 -2.369614 9.225399
											CHANNELS 3 Xrotation Yrotation Zrotation
											JOINT RightHandThumb2
											{
												OFFSET -4.926170 -2.844131 2.844125
												CHANNELS 3 Xrotation Yrotation Zrotation
												JOINT RightHandThumb3
												{
													OFFSET -4.614891 -2.664413 2.664409
													CHANNELS 3 Xrotation Yrotation Zrotation
													JOINT RightHandThumb4
													{
														OFFSET -4.432465 -2.559082 2.559083
														CHANNELS 3 Xrotation Yrotation Zrotation
														End Site
														{
															OFFSET 0.000000 0.000000 0.000000
														}
													}
												}
											}
										}
										JOINT RightHandIndex1
										{
											OFFSET -26.467674 0.187653 6.405298
											CHANNELS 3 Xrotation Yrotation Zrotation
											JOINT RightHandIndex2
											{
												OFFSET -8.792900 0.000000 0.000000
												CHANNELS 3 Xrotation Yrotation Zrotation
												JOINT RightHandIndex3
												{
													OFFSET -10.075203 0.000000 0.000000
													CHANNELS 3 Xrotation Yrotation Zrotation
													End Site
													{
														OFFSET 0.000000 0.000000 0.000000
													}
												}
											}
										}
										JOINT RightHandMiddle1
										{
											OFFSET -25.764404 0.000000 0.000000
											CHANNELS 3 Xrotation Yrotation Zrotation
											JOINT RightHandMiddle2
											{
												OFFSET -9.393974 0.000000 0.000000
												CHANNELS 3 Xrotation Yrotation Zrotation
												JOINT RightHandMiddle3
												{
													OFFSET -10.771950 0.000000 0.000000
													CHANNELS 3 Xrotation Yrotation Zrotation
													End Site
													{
														OFFSET 0.000000 0.000000 0.000000
													}
												}
											}
										}
										JOINT RightHandRing1
										{
											OFFSET -24.660927 0.144547 -6.225808
											CHANNELS 3 Xrotation Yrotation Zrotation
											JOINT RightHandRing2
											{
												OFFSET -9.393799 0.000000 0.000000
												CHANNELS 3 Xrotation Yrotation Zrotation
												JOINT RightHandRing3
												{
													OFFSET -9.928497 0.000000 0.000000
													CHANNELS 3 Xrotation Yrotation Zrotation
													End Site
													{
														OFFSET 0.000000 0.000000 0.000000
													}
												}
											}
										}
										JOINT RightHandPinky1
										{
											OFFSET -23.655350 0.125290 -12.815412
											CHANNELS 3 Xrotation Yrotation Zrotation
											JOINT RightHandPinky2
											{
												OFFSET -8.425102 0.000000 0.000000
												CHANNELS 3 Xrotation Yrotation Zrotation
												JOINT RightHandPinky3
												{
													OFFSET -8.147003 0.000000 0.000000
													CHANNELS 3 Xrotation Yrotation Zrotation
													End Site
													{
														OFFSET 0.000000 0.000000 0.000000
													}
												}
											}
										}
									}
								}
							}
						}
					}
				}
			}
		}
	}
	JOINT LeftUpLeg
	{
		OFFSET 11.394100 -6.187798 -0.413800
		CHANNELS 3 Xrotation Yrotation Zrotation
		JOINT LeftLeg
		{
			OFFSET 0.430247 -32.302673 3.732800
			CHANNELS 3 Xrotation Yrotation Zrotation
			JOINT LeftFoot
			{
				OFFSET -0.430247 -48.264931 -6.423300
				CHANNELS 3 Xrotation Yrotation Zrotation
				JOINT LeftToeBase
				{
					OFFSET 4.230900 -16.068199 23.438400
					CHANNELS 3 Xrotation Yrotation Zrotation
					JOINT LeftToe_End
					{
						OFFSET 4.510700 0.695400 19.974600
						CHANNELS 3 Xrotation Yrotation Zrotation
						End Site
						{
							OFFSET 0.000000 0.000000 0.000000
						}
					}
				}
			}
		}
	}
	JOINT RightUpLeg
	{
		OFFSET -11.333700 -6.187798 -0.413800
		CHANNELS 3 Xrotation Yrotation Zrotation
		JOINT RightLeg
		{
			OFFSET -0.430392 -32.302628 3.733000
			CHANNELS 3 Xrotation Yrotation Zrotation
			JOINT RightFoot
			{
				OFFSET 0.430392 -48.264973 -6.423500
				CHANNELS 3 Xrotation Yrotation Zrotation
				JOINT RightToeBase
				{
					OFFSET -4.230900 -16.068199 23.438400
					CHANNELS 3 Xrotation Yrotation Zrotation
					JOINT RightToe_End
					{
						OFFSET -4.510700 0.695400 19.974600
						CHANNELS 3 Xrotation Yrotation Zrotation
						End Site
						{
							OFFSET 0.000000 0.000000 0.000000
						}
					}
				}
			}
		}
	}
}
MOTION
Frames: 5
Frame Time: 0.016667
-0.046076 90.937973 -0.041359 -0.669828 -15.843553 -1.562729 3.773711 1.248055 0.152946 2.523603 1.177439 -0.059023 0.000000 0.000000 0.000000 2.503913 1.224027 -0.090937 0.457849 0.824230 4.848788 8.545302 11.130796 -0.783159 0.000002 0.000000 0.000001 0.513444 1.082368 14.986774 0.000000 0.000000 0.000000 -49.547415 -53.697171 -56.631960 0.000001 -52.589530 -0.000000 -101.282546 -0.136457 2.488754 35.234562 -17.219581 -17.236899 29.406847 28.726526 -29.411799 9.113611 14.378711 -9.922565 0.000002 0.000002 -0.000003 0.797696 3.221916 -27.804752 0.799617 3.225515 -27.838615 0.000002 0.000001 -0.000000 0.796795 3.220213 -27.788715 0.800509 3.227225 -27.854654 -0.000000 0.000002 0.000001 0.797695 3.221915 -27.804747 0.799619 3.225515 -27.838618 0.000001 0.000002 0.000001 2.684970 6.814116 -27.459497 0.809070 -0.835578 -28.291876 0.000004 0.000002 0.000000 0.384724 -1.325532 -0.769391 0.000000 0.000000 0.000000 3.865766 95.192121 -10.302145 0.000002 25.659969 -0.000000 -50.084254 -3.447569 -9.781614 40.606629 -3.110552 26.124241 -37.849510 -44.265001 -46.874960 -12.282872 -22.415212 -17.633351 -0.000002 -0.000000 0.000001 3.635314 -6.111014 61.464504 7.728621 -6.904478 96.464449 0.000001 -0.000001 -0.000002 3.635321 -6.111005 61.464510 7.728619 -6.904477 96.464449 -0.000001 0.000000 0.000000 3.635316 -6.111011 61.464504 7.728621 -6.904478 96.464449 0.000001 -0.000000 -0.000000 3.635320 -6.111016 61.464497 7.728622 -6.904482 96.464449 -0.000001 0.000001 0.000001 -40.832664 15.863362 14.423840 50.794850 4.247991 10.274969 -11.756963 0.934782 -10.284293 -0.201332 -0.000003 0.000000 0.000000 0.000000 0.000000 -36.695239 -20.109313 -11.687573 50.303841 -3.877588 -10.254681 -15.028530 -1.452315 9.705177 -0.041267 -0.000003 -0.000001 0.000000 -0.000000 -0.000000 
-0.007235 90.907372 -0.017859 -0.673587 -15.791590 -1.550666 3.765446 1.228332 0.198285 2.514745 1.164371 -0.024040 0.000000 0.000000 0.000000 2.495215 1.211957 -0.055856 0.444798 0.831758 4.833578 8.560006 11.165286 -0.906730 0.000002 0.000000 0.000001 0.748157 0.781684 15.125095 0.000000 0.000000 0.000000 -49.125917 -53.329912 -56.178904 -0.000006 -52.952493 -0.000007 -101.491277 -0.073165 2.700984 35.234562 -17.219578 -17.236894 29.406847 28.726533 -29.411799 9.113611 14.378718 -9.922564 -0.000002 -0.000001 0.000002 0.797693 3.221915 -27.804752 0.799618 3.225515 -27.838618 -0.000000 -0.000000 -0.000000 0.796792 3.220213 -27.788710 0.800506 3.227222 -27.854654 -0.000002 0.000001 0.000000 0.797691 3.221914 -27.804749 0.799620 3.225514 -27.838615 -0.000000 0.000001 0.000000 2.684967 6.814115 -27.459485 0.809071 -0.835572 -28.291876 -0.000001 -0.000001 -0.000001 0.387290 -1.315634 -0.755623 0.000000 0.000000 0.000000 4.637184 95.148620 -10.970183 0.000001 25.704913 0.000001 -50.030296 -3.689115 -9.647763 40.606629 -3.110552 26.124241 -37.849514 -44.265005 -46.874960 -12.282868 -22.415214 -17.633351 0.000001 -0.000000 -0.000000 3.635309 -6.111013 61.464504 7.728621 -6.904480 96.464449 -0.000000 -0.000000 -0.000001 3.635319 -6.111005 61.464510 7.728619 -6.904476 96.464449 0.000000 -0.000000 -0.000002 3.635310 -6.111010 61.464504 7.728623 -6.904476 96.464449 0.000002 0.000000 0.000002 3.635312 -6.111017 61.464497 7.728624 -6.904477 96.464449 -0.000004 0.000000 0.000002 -40.850258 15.797300 14.336555 50.880907 4.301946 10.274205 -11.801530 0.942294 -10.272677 -0.201396 0.000007 -0.000001 0.000000 -0.000001 0.000000 -36.808169 -20.269440 -11.891947 50.405703 -3.722570 -10.253606 -15.069387 -1.421080 9.683187 -0.041342 -0.000012 -0.000000 -0.000000 0.000000 0.000000 
0.040127 90.872467 0.010133 -0.691656 -15.735999 -1.541845 3.764943 1.211727 0.251381 2.511989 1.154429 0.015427 0.000000 0.000000 0.000000 2.492557 1.203284 -0.016407 0.427323 0.835599 4.813935 8.559335 11.171114 -1.001660 0.000002 -0.000000 0.000000 0.696101 0.770073 15.279767 0.000000 0.000000 0.000000 -49.162848 -53.221534 -56.426092 0.000010 -52.964712 0.000006 -101.561566 0.130805 2.653117 35.234562 -17.219580 -17.236899 29.406847 28.726533 -29.411795 9.113611 14.378714 -9.922564 -0.000000 0.000000 0.000002 0.797692 3.221918 -27.804752 0.799616 3.225514 -27.838618 0.000000 -0.000001 0.000000 0.796796 3.220214 -27.788715 0.800507 3.227222 -27.854650 -0.000000 0.000001 0.000000 0.797693 3.221916 -27.804752 0.799615 3.225516 -27.838618 0.000001 -0.000000 -0.000000 2.684965 6.814117 -27.459493 0.809073 -0.835573 -28.291880 0.000000 -0.000000 0.000000 0.383952 -1.340513 -0.713610 0.000000 0.000000 0.000000 5.054927 95.126312 -11.279563 0.000001 25.763192 0.000001 -50.049447 -3.937770 -9.643300 40.606629 -3.110553 26.124242 -37.849514 -44.265001 -46.874956 -12.282868 -22.415211 -17.633351 -0.000001 -0.000001 -0.000000 3.635318 -6.111014 61.464504 7.728620 -6.904480 96.464449 0.000001 0.000000 0.000001 3.635328 -6.111005 61.464510 7.728621 -6.904478 96.464456 -0.000002 0.000000 0.000000 3.635314 -6.111011 61.464504 7.728620 -6.904476 96.464449 0.000002 -0.000000 -0.000000 3.635320 -6.111017 61.464504 7.728624 -6.904481 96.464449 -0.000001 0.000001 0.000001 -40.848090 15.703469 14.223622 50.977605 4.386801 10.273304 -11.854183 0.954845 -10.267660 -0.201739 -0.000000 0.000000 -0.000000 -0.000000 -0.000000 -36.919775 -20.440121 -12.119014 50.519381 -3.551463 -10.252427 -15.114203 -1.388045 9.663125 -0.041361 0.000003 -0.000001 -0.000000 0.000002 -0.000000 
0.101355 90.834221 0.042674 -0.726171 -15.688323 -1.533465 3.772262 1.199611 0.315749 2.515585 1.148446 0.062321 0.000000 0.000000 0.000000 2.496205 1.198883 0.030350 0.407233 0.837275 4.781249 8.539277 11.143537 -1.073495 -0.000000 0.000000 0.000000 0.649400 0.743677 15.445090 0.000000 0.000000 0.000000 -49.232208 -53.041296 -56.699429 -0.000023 -52.985117 -0.000022 -101.509042 0.375116 2.524162 35.234559 -17.219583 -17.236899 29.406847 28.726529 -29.411799 9.113611 14.378713 -9.922564 -0.000002 -0.000002 0.000000 0.797695 3.221915 -27.804752 0.799619 3.225513 -27.838618 0.000003 0.000001 0.000001 0.796794 3.220213 -27.788715 0.800506 3.227224 -27.854654 0.000000 -0.000001 -0.000001 0.797696 3.221914 -27.804749 0.799622 3.225513 -27.838620 0.000000 -0.000001 -0.000000 2.684970 6.814116 -27.459493 0.809073 -0.835575 -28.291876 0.000001 0.000000 -0.000000 0.376740 -1.384607 -0.671987 0.000000 0.000000 0.000000 5.291884 95.121196 -11.413496 0.000001 25.831342 0.000001 -50.103426 -4.169145 -9.766427 40.606629 -3.110552 26.124241 -37.849514 -44.265001 -46.874960 -12.282867 -22.415211 -17.633349 0.000001 -0.000001 0.000000 3.635319 -6.111013 61.464504 7.728622 -6.904477 96.464449 0.000002 -0.000001 -0.000000 3.635329 -6.111004 61.464510 7.728620 -6.904473 96.464449 -0.000001 0.000000 0.000001 3.635318 -6.111010 61.464504 7.728622 -6.904478 96.464449 -0.000004 0.000001 0.000003 3.635320 -6.111016 61.464504 7.728619 -6.904483 96.464449 0.000000 0.000001 0.000002 -40.821913 15.594884 14.085659 51.081988 4.506457 10.272265 -11.916850 0.969776 -10.266769 -0.202579 0.000004 -0.000002 0.000000 -0.000000 0.000000 -37.024304 -20.592650 -12.357101 50.641065 -3.375478 -10.251337 -15.156250 -1.359005 9.652902 -0.041325 0.000015 0.000001 -0.000000 0.000000 0.000000 
0.184206 90.793846 0.078798 -0.775869 -15.665845 -1.521354 3.785987 1.196007 0.394210 2.524803 1.149000 0.120567 0.000000 0.000000 0.000000 2.505398 1.201392 0.088318 0.385440 0.838613 4.727868 8.503747 11.082636 -1.138268 0.000001 -0.000000 -0.000000 0.614098 0.699945 15.619079 0.000000 0.000000 0.000000 -49.322555 -52.782834 -56.988691 0.000003 -53.012752 -0.000002 -101.382123 0.591592 2.323007 35.234555 -17.219580 -17.236896 29.406847 28.726533 -29.411795 9.113611 14.378716 -9.922562 0.000000 -0.000002 -0.000001 0.797695 3.221918 -27.804756 0.799620 3.225515 -27.838618 -0.000001 -0.000001 -0.000001 0.796793 3.220215 -27.788719 0.800508 3.227223 -27.854650 -0.000001 0.000001 0.000000 0.797693 3.221915 -27.804752 0.799622 3.225514 -27.838620 0.000000 0.000000 -0.000000 2.684969 6.814115 -27.459493 0.809071 -0.835575 -28.291882 0.000000 -0.000001 0.000000 0.369205 -1.423146 -0.665887 0.000000 0.000000 0.000000 5.529756 95.119257 -11.566538 -0.000000 25.903088 0.000000 -50.137502 -4.369453 -9.973902 40.606632 -3.110552 26.124241 -37.849514 -44.264998 -46.874963 -12.282868 -22.415207 -17.633349 0.000002 -0.000001 0.000000 3.635319 -6.111013 61.464504 7.728623 -6.904478 96.464449 0.000001 0.000001 -0.000001 3.635328 -6.111004 61.464510 7.728621 -6.904472 96.464449 -0.000001 -0.000000 -0.000001 3.635317 -6.111010 61.464504 7.728622 -6.904481 96.464449 0.000000 -0.000000 0.000000 3.635322 -6.111016 61.464497 7.728622 -6.904478 96.464442 0.000001 -0.000000 -0.000001 -40.773388 15.493584 13.927575 51.190997 4.663649 10.270947 -11.991687 0.982090 -10.264575 -0.204022 0.000007 -0.000004 -0.000000 -0.000001 0.000000 -37.121057 -20.696055 -12.594478 50.765613 -3.202944 -10.250318 -15.185753 -1.337998 9.659744 -0.041176 0.000000 0.000004 -0.000000 -0.000003 -0.000000 
